<svg width="100" height="100" viewBox="0 0 100 100" fill="none" xmlns="http://www.w3.org/2000/svg">
  <g>
    <path
      d="M75 25C82 30 88 38 85 50C82 62 75 67 75 72C75 77 80 82 75 87C70 92 65 87 65 82C65 77 70 72 70 62C70 52 65 47 65 37C65 27 68 20 75 25Z"
      stroke="url(#primaryGradient)"
      stroke-width="4"
      stroke-linecap="round"
      fill="none"
    />
    <path
      d="M65 45C60 50 55 50 50 45C45 40 45 35 50 30C55 25 60 25 65 30"
      stroke="url(#secondaryGradient)"
      stroke-width="4"
      stroke-linecap="round"
      fill="none"
    />
    <path
      d="M35 45C30 50 25 45 25 40C25 35 30 30 35 30C40 30 45 35 40 40"
      stroke="url(#secondaryGradient)"
      stroke-width="4"
      stroke-linecap="round"
      fill="none"
    />
    <defs>
      <linearGradient id="primaryGradient" x1="0%" y1="0%" x2="100%" y2="100%">
        <stop offset="0%" stop-color="#3b82f6" />
        <stop offset="50%" stop-color="#1e293b" />
        <stop offset="100%" stop-color="#2563eb" />
      </linearGradient>
      <linearGradient id="secondaryGradient" x1="100%" y1="0%" x2="0%" y2="100%">
        <stop offset="0%" stop-color="#cbd5e1" />
        <stop offset="50%" stop-color="#0f172a" />
        <stop offset="100%" stop-color="#3b82f6" />
      </linearGradient>
    </defs>
  </g>
</svg>
